<?xml version="1.0" encoding="UTF-8"?>
<svg width="1024" height="670" version="1.1" viewBox="0 0 1024 670" xmlns="http://www.w3.org/2000/svg" xmlns:xlink="http://www.w3.org/1999/xlink">
 <defs>
  <linearGradient id="linearGradient4913" x1="870" x2="1e3" y1="590" y2="590" gradientTransform="matrix(3.5645 0 0 .59091 -2628.6 176.36)" gradientUnits="userSpaceOnUse">
   <stop stop-color="#fff" stop-opacity="0" offset="0"/>
   <stop stop-color="#fff" offset=".19962"/>
   <stop stop-color="#fff" offset="1"/>
  </linearGradient>
  <linearGradient id="linearGradient4191" x1="870" x2="1e3" y1="590" y2="590" gradientTransform="matrix(.74194 0 0 .59091 264.52 166.36)" gradientUnits="userSpaceOnUse">
   <stop stop-color="#fff" stop-opacity="0" offset="0"/>
   <stop stop-color="#fff" stop-opacity=".92193" offset=".5"/>
   <stop stop-color="#fff" offset="1"/>
  </linearGradient>
 </defs>
 <g>
  <rect width="1024" height="670" fill="#fff"/>
  <rect width="1024" height="450"/>
  <rect x="110" width="800" height="450" fill="#b3b3b3"/>
  <g font-family="Roboto" letter-spacing="0px" word-spacing="0px">
   <text x="34.976837" y="627.38123" fill="#666666" font-size="29.333px" style="font-variant-caps:normal;font-variant-east-asian:normal;font-variant-ligatures:normal;font-variant-numeric:normal;line-height:1.25" xml:space="preserve"><tspan x="34.976837" y="627.38123" fill="#666666" font-family="Roboto" font-size="29.333px" style="font-variant-caps:normal;font-variant-east-asian:normal;font-variant-ligatures:normal;font-variant-numeric:normal">Views: </tspan></text>
   <text id="viewsCount" x="131.09203" y="627.38123" fill="#666666" font-size="29.333px" style="font-variant-caps:normal;font-variant-east-asian:normal;font-variant-ligatures:normal;font-variant-numeric:normal;line-height:1.25" xml:space="preserve"><tspan x="131.09203" y="627.38123" fill="#666666" font-family="Roboto" font-size="29.333px" style="font-variant-caps:normal;font-variant-east-asian:normal;font-variant-ligatures:normal;font-variant-numeric:normal">#viewsCount</tspan></text>
   <text id="channelTitle" x="36.819046" y="568.49713" fill="#000000" font-size="32px" style="font-variant-caps:normal;font-variant-east-asian:normal;font-variant-ligatures:normal;font-variant-numeric:normal;line-height:1.25" xml:space="preserve"><tspan x="36.819046" y="568.49713" font-family="Roboto" font-size="32px" style="font-variant-caps:normal;font-variant-east-asian:normal;font-variant-ligatures:normal;font-variant-numeric:normal">#channelName</tspan></text>
   <text x="687.4801" y="627.38123" fill="#666666" font-size="29.333px" style="font-variant-caps:normal;font-variant-east-asian:normal;font-variant-ligatures:normal;font-variant-numeric:normal;line-height:1.25" xml:space="preserve"><tspan x="687.4801" y="627.38123" fill="#666666" font-family="Roboto" font-size="29.333px" style="font-variant-caps:normal;font-variant-east-asian:normal;font-variant-ligatures:normal;font-variant-numeric:normal">#likes</tspan></text>
  </g>
 </g>
 <g transform="matrix(1.7433 0 0 1.7433 818.01 599.3)" display="block" fill="#808080" stroke-width=".57363">
  <path class="style-scope yt-icon" d="m15 3h-9c-0.83 0-1.54 0.5-1.84 1.22l-3.02 7.05c-0.09 0.23-0.14 0.47-0.14 0.73v1.91l0.01 0.01-0.01 0.08c0 1.1 0.9 2 2 2h6.31l-0.95 4.57-0.03 0.32c0 0.41 0.17 0.79 0.44 1.06l1.06 1.05 6.59-6.59c0.36-0.36 0.58-0.86 0.58-1.41v-10c0-1.1-0.9-2-2-2zm4 0v12h4v-12z" fill="#808080" stroke-width=".57363"/>
 </g>
 <g transform="matrix(1.7433 0 0 1.7433 633.94 595.49)" display="block" fill="#808080" stroke-width=".57363">
  <path class="style-scope yt-icon" d="m1 21h4v-12h-4zm22-11c0-1.1-0.9-2-2-2h-6.31l0.95-4.57 0.03-0.32c0-0.41-0.17-0.79-0.44-1.06l-1.06-1.05-6.58 6.59c-0.37 0.36-0.59 0.86-0.59 1.41v10c0 1.1 0.9 2 2 2h9c0.83 0 1.54-0.5 1.84-1.22l3.02-7.05c0.09-0.23 0.14-0.47 0.14-0.73v-1.91l-0.01-0.01z" fill="#808080" stroke-width=".57363"/>
 </g>
 <g>
  <text x="872.67877" y="627.38123" fill="#666666" font-family="Roboto" font-size="29.333px" letter-spacing="0px" word-spacing="0px" style="font-variant-caps:normal;font-variant-east-asian:normal;font-variant-ligatures:normal;font-variant-numeric:normal;line-height:1.25" xml:space="preserve"><tspan x="872.67877" y="627.38123" fill="#666666" font-family="Roboto" font-size="29.333px" style="font-variant-caps:normal;font-variant-east-asian:normal;font-variant-ligatures:normal;font-variant-numeric:normal">#dislikes</tspan></text>
  <rect x="472.5" y="460" width="552.5" height="130" fill="url(#linearGradient4913)"/>
  <text id="videoTitle" x="35.624809" y="509.31769" fill="#000000" font-family="Roboto" font-size="40px" letter-spacing="0px" word-spacing="0px" style="font-variant-caps:normal;font-variant-east-asian:normal;font-variant-ligatures:normal;font-variant-numeric:normal;line-height:60px" xml:space="preserve"><tspan x="35.624809" y="509.31769" font-family="Roboto" font-size="40px">#videoTitle</tspan></text>
  <rect x="910" y="450" width="115" height="130" fill="url(#linearGradient4191)"/>
  <text x="687.4801" y="568.49713" fill="#666666" font-family="Roboto" font-size="29.333px" letter-spacing="0px" word-spacing="0px" style="font-variant-caps:normal;font-variant-east-asian:normal;font-variant-ligatures:normal;font-variant-numeric:normal;line-height:1.25" xml:space="preserve"><tspan x="687.4801" y="568.49713" fill="#666666" font-family="Roboto" font-size="29.333px" style="font-variant-caps:normal;font-variant-east-asian:normal;font-variant-ligatures:normal;font-variant-numeric:normal">#uploaded</tspan></text>
  <path d="m646.84 566.02v-13.078h-8.7189l15.258-15.258 15.258 15.258h-8.7189v13.078h-13.078m-8.7189 8.7189v-4.3594h30.516v4.3594z" fill="#808080"/>
 </g>
</svg>
